<svg id="Calque_1" data-name="Calque 1" xmlns="http://www.w3.org/2000/svg" viewBox="0 0 266.44 192.64"><defs><style>.cls-1{fill:#dadada;}</style></defs><path class="cls-1" d="M137.62,190.11A93.53,93.53,0,0,1,43.78,95.92C43.82,44.13,86.42,2,138.45,2.29A94.08,94.08,0,0,1,232.3,96.77C232.13,148.82,190.18,190.17,137.62,190.11Zm-.09-25.23c38.25.28,68.73-29.54,69-67.54.3-38.39-29.36-69.18-67-69.57A69.35,69.35,0,0,0,69.27,93.46C67.37,130.07,98.86,165.61,137.53,164.88Z"/><path class="cls-1" d="M11.59,4.6c0,10.76-.07,21.52.05,32.28,0,2.45-1.29,6,3.24,6.17,4.71.18,3.36-3.45,3.38-5.87.12-10.15,0-20.29.12-30.43C18.42,4.11,16.7.27,22,0c5.5-.23,3.8,3.69,3.83,6.32.15,10.14,0,20.28.11,30.43,0,2.49-1.16,5.94,3.24,6.22,5.41.35,3.67-3.81,3.71-6.41.16-11,.07-21.89.78-32.93,8.51,16.54,12.4,34,10.09,52.56a12,12,0,0,1-5.43,8.31c-8.35,5.36-9.6,13-9.47,22.22.44,32.57.16,65.16.18,97.75,0,4.22,1,8.1-6.09,8.13-6.87,0-7.11-2.91-7.08-8.16.16-34.12,0-68.24.12-102.36,0-4.37.48-9.25-3.44-11.82-13.76-9-13.72-22-11.39-36C2.92,23.88,5.34,13.66,11.59,4.6Z"/><path class="cls-1" d="M243.77,0c17.83,6.83,20.33,21.78,21.69,36.8C267.08,54.61,267,73.07,262.72,90c-8.07,31.62-2.5,63.24-4.19,94.78-.36,6.79-2.38,8.24-8.44,7.68-3.37-.31-5.34-.88-4.77-4.68a7,7,0,0,0,0-.92C246.73,124.92,241.35,63.08,243.77,0Z"/><path class="cls-1" d="M76.77,95.27C77,61.18,104.13,34.83,138.71,35s61,27.44,60.7,62.43c-.34,34-27.72,60.67-62,60.27C102.64,157.33,76.49,130.4,76.77,95.27Z"/></svg>