<svg id="Calque_1" data-name="Calque 1" xmlns="http://www.w3.org/2000/svg" viewBox="0 0 353.19 328.65"><defs><style>.cls-1{fill:#dadada;}</style></defs><path class="cls-1" d="M353.19,125.45c.21-20.56-20.39-41.93-40.62-40.53-6.27.43-12.63-.52-18.94-.86a4.47,4.47,0,0,1-2.37-.41c-2.19-1.74-4.08-10.73-2.93-13.58,1.37-3.37,3-6.65,4.22-10.08,1.07-3,2.59-4.15,6.06-4.16,16,0,32-.53,48-.73,2.44,0,4-.52,3.34-3.24-.5-2,2.07-5.52-2.4-5.68-18.57-.63-37.17.75-55.69-2.84C282.62,41.55,273,44.7,263.71,45c-27.29.94-54.65.85-81.95.19s-54.4,2.47-81.57-1.87c-9.27-1.48-18.94.89-28.39,1.56-20.67,1.47-41.53.45-62.66.45,0-13.77-.2-27.58.12-41.39C9.35-.25,7.29,0,4.48,0,1.88.05,0-.25,0,3.73Q.27,71.94,0,140.15c0,4.37,2.31,3.6,4.92,3.79,3,.22,4.41-.31,4.31-3.9-.27-9.65.18-19.33-.15-29C8.54,94.85,15.84,82.48,27.36,72,41.75,58.92,58.79,54.24,77.91,55.91A2.9,2.9,0,0,1,80.8,58c1.88,4.59,3.88,9.15,5.65,13.79S83.21,84.5,78.31,85c-20.17,2.13-36.91,20.4-37,42-.27,52.81-.09,105.61-.08,158.42,0,23.49,20,43.35,43.55,43.22q111.21-.58,222.41,0a55.83,55.83,0,0,0,11.91-.84c18.22-3.89,34.05-20.67,34-39.45C352.91,234.05,352.66,179.74,353.19,125.45ZM9.15,82.61c0-9.12.1-16.7-.06-24.28C9,55.7,10.43,55.94,12.18,56c8.15,0,16.31,0,25.94,0A75.68,75.68,0,0,0,9.15,82.61ZM283.74,55.8c4.51.13,5.33,1.05,2.8,4.82-1,1.44-1.38,3.25-2.44,5.85-1.26-2.62-2-4.22-2.8-5.81C280,58,278.38,55.66,283.74,55.8ZM94.22,72.05c1.58-5,3.84-9.87,5.86-14.77,1-2.44,3.19-1.23,4.77-1.23q59-.12,117.93-.06c15.66,0,31.32.07,47-.07,2.73,0,4.26.68,5.24,3.29,1.51,4,3.5,7.82,5,11.81,1.76,4.64-1.61,8.24-3.16,12.06C276,85.25,273,84,271,84q-42,.1-83.95,0c-27.81,0-55.63,0-83.45-.07-2.13,0-5.11,1.45-6.33-1.22C95.72,79.4,93,76,94.22,72.05ZM346,288.1c0,16.48-15.42,32.67-31.89,32.77-39,.26-77.94.08-116.91.08v.28c-36.3,0-72.61-.2-108.92.1-14.36.12-25.93-4.48-34-16.61a29,29,0,0,1-5.19-16.25c0-54.79-.12-109.58.08-164.36.06-16.87,16.28-32.21,33-32.2q115.43,0,230.84,0c16.88,0,33,15.94,33,32.82Q346.05,206.42,346,288.1Z"/><path class="cls-1" d="M193.19,138.92c-35.39,1.64-68.29,32.7-68.35,71.64-.06,38.4,32.52,70.4,69.35,71.58,42.59,1.36,75.73-35.46,73.71-71.33C270.12,173.92,235.85,136.93,193.19,138.92Zm3.39,123.24c-27.16,2.57-52.2-23.39-52.2-51.46,0-28.54,24.76-52.39,52.58-52.19,29.44.2,51.28,25.92,51.44,46.33C248.67,240.53,228.89,262.17,196.58,262.16Z"/><path class="cls-1" d="M125.25,176.12c0,5.42-2.39,9.23-6.41,12.16-3.55,2.6-4.84,5.77-4.87,10.15-.17,27.12-.65,54.23-.77,81.35,0,3.86-1.54,4.17-4.63,4.19s-4.61-.36-4.59-4.19c.1-26.79-.16-53.58-.12-80.37,0-4.92-1.51-8.6-5.54-11.5-4.46-3.2-6.35-7.57-6.35-13.28a82.83,82.83,0,0,1,6-31,5.78,5.78,0,0,1,2.78-3.54c0,9,0,17.36,0,25.67,0,1.72-.54,3.81,2.51,3.68s1.86-2.27,1.92-3.63c.37-8.31.63-16.62.87-24.93.06-1.89-.24-3.59,2.66-3.61,3.1,0,2.95,1.73,2.93,3.89-.09,8.32-.08,16.63-.09,24.95,0,1.65-.3,3.33,2.38,3.36s2.53-1.48,2.53-3.22c0-8.56,0-17.12.83-25.72A58.26,58.26,0,0,1,125,166.21C125.26,169.48,125.24,172.82,125.25,176.12Z"/><path class="cls-1" d="M291.52,207.91c-.13,2,.53,4.65-2.79,5.6-1.37.4-.66,2.72-.67,4.17-.13,20.48-.3,41-.23,61.45,0,3.6-.71,5-4.63,4.86-3.53-.14-5.39-.45-5.25-4.79.33-10.49.1-21,.1-31.48h0c0-10.49,1.14-21.13-.23-31.44-3.22-24.15-.53-48.31-1.49-72.44-.08-2-1.12-4.91,1.25-5.86,2-.8,4.1,1.07,5.73,2.46,6.94,5.93,9,14.07,9.63,22.66C294,178.07,292.5,193,291.52,207.91Z"/><path class="cls-1" d="M196.6,257.21c-25.42,1.27-46.86-21.67-46.92-46.47-.05-25.54,21.72-46.87,46.59-47,27.47-.16,46.1,23.42,47.43,43.71C245.47,234.45,222.27,258.59,196.6,257.21Z"/></svg>